<mxfile host="65bd71144e">
    <diagram id="TKaw7p3xVKe-aNx91_xg" name="Sayfa -1">
        <mxGraphModel dx="1523" dy="599" grid="1" gridSize="10" guides="1" tooltips="1" connect="1" arrows="1" fold="1" page="1" pageScale="1" pageWidth="827" pageHeight="1169" math="0" shadow="0">
            <root>
                <mxCell id="0"/>
                <mxCell id="1" parent="0"/>
                <mxCell id="YHJnWuM0y0OzUFd9MaoD-1" value="University" style="rounded=0;whiteSpace=wrap;html=1;" parent="1" vertex="1">
                    <mxGeometry x="330" y="330" width="120" height="60" as="geometry"/>
                </mxCell>
                <mxCell id="YHJnWuM0y0OzUFd9MaoD-18" value="" style="edgeStyle=orthogonalEdgeStyle;rounded=0;orthogonalLoop=1;jettySize=auto;html=1;endArrow=diamondThin;endFill=0;" parent="1" source="YHJnWuM0y0OzUFd9MaoD-2" target="YHJnWuM0y0OzUFd9MaoD-1" edge="1">
                    <mxGeometry relative="1" as="geometry"/>
                </mxCell>
                <mxCell id="YHJnWuM0y0OzUFd9MaoD-2" value="classroom" style="rounded=0;whiteSpace=wrap;html=1;" parent="1" vertex="1">
                    <mxGeometry x="330" y="190" width="120" height="60" as="geometry"/>
                </mxCell>
                <mxCell id="YHJnWuM0y0OzUFd9MaoD-19" value="" style="edgeStyle=orthogonalEdgeStyle;rounded=0;orthogonalLoop=1;jettySize=auto;html=1;endArrow=diamondThin;endFill=0;" parent="1" source="YHJnWuM0y0OzUFd9MaoD-4" target="YHJnWuM0y0OzUFd9MaoD-1" edge="1">
                    <mxGeometry relative="1" as="geometry"/>
                </mxCell>
                <mxCell id="YHJnWuM0y0OzUFd9MaoD-4" value="Department" style="rounded=0;whiteSpace=wrap;html=1;" parent="1" vertex="1">
                    <mxGeometry x="130" y="330" width="120" height="60" as="geometry"/>
                </mxCell>
                <mxCell id="YHJnWuM0y0OzUFd9MaoD-17" value="" style="edgeStyle=orthogonalEdgeStyle;rounded=0;orthogonalLoop=1;jettySize=auto;html=1;endArrow=diamondThin;endFill=0;" parent="1" source="YHJnWuM0y0OzUFd9MaoD-6" target="YHJnWuM0y0OzUFd9MaoD-1" edge="1">
                    <mxGeometry relative="1" as="geometry"/>
                </mxCell>
                <mxCell id="YHJnWuM0y0OzUFd9MaoD-6" value="Working Office" style="rounded=0;whiteSpace=wrap;html=1;" parent="1" vertex="1">
                    <mxGeometry x="530" y="330" width="120" height="60" as="geometry"/>
                </mxCell>
                <mxCell id="YHJnWuM0y0OzUFd9MaoD-13" value="" style="edgeStyle=orthogonalEdgeStyle;rounded=0;orthogonalLoop=1;jettySize=auto;html=1;" parent="1" edge="1">
                    <mxGeometry relative="1" as="geometry">
                        <mxPoint x="-770" y="2630" as="sourcePoint"/>
                        <mxPoint x="-770" y="2710" as="targetPoint"/>
                    </mxGeometry>
                </mxCell>
                <mxCell id="YHJnWuM0y0OzUFd9MaoD-16" value="" style="edgeStyle=orthogonalEdgeStyle;rounded=0;orthogonalLoop=1;jettySize=auto;html=1;endArrow=diamondThin;endFill=0;" parent="1" source="YHJnWuM0y0OzUFd9MaoD-8" target="YHJnWuM0y0OzUFd9MaoD-14" edge="1">
                    <mxGeometry relative="1" as="geometry"/>
                </mxCell>
                <mxCell id="YHJnWuM0y0OzUFd9MaoD-20" value="" style="edgeStyle=orthogonalEdgeStyle;rounded=0;orthogonalLoop=1;jettySize=auto;html=1;endArrow=diamondThin;endFill=0;" parent="1" source="YHJnWuM0y0OzUFd9MaoD-8" target="YHJnWuM0y0OzUFd9MaoD-1" edge="1">
                    <mxGeometry relative="1" as="geometry"/>
                </mxCell>
                <mxCell id="YHJnWuM0y0OzUFd9MaoD-8" value="Employee" style="rounded=0;whiteSpace=wrap;html=1;" parent="1" vertex="1">
                    <mxGeometry x="330" y="470" width="120" height="60" as="geometry"/>
                </mxCell>
                <mxCell id="YHJnWuM0y0OzUFd9MaoD-25" value="" style="edgeStyle=orthogonalEdgeStyle;rounded=0;orthogonalLoop=1;jettySize=auto;html=1;endArrow=diamondThin;endFill=0;" parent="1" source="YHJnWuM0y0OzUFd9MaoD-14" target="YHJnWuM0y0OzUFd9MaoD-4" edge="1">
                    <mxGeometry relative="1" as="geometry"/>
                </mxCell>
                <mxCell id="YHJnWuM0y0OzUFd9MaoD-14" value="Office" style="rounded=0;whiteSpace=wrap;html=1;" parent="1" vertex="1">
                    <mxGeometry x="130" y="470" width="120" height="60" as="geometry"/>
                </mxCell>
                <mxCell id="YHJnWuM0y0OzUFd9MaoD-22" value="" style="edgeStyle=orthogonalEdgeStyle;rounded=0;orthogonalLoop=1;jettySize=auto;html=1;endArrow=block;endFill=0;" parent="1" source="YHJnWuM0y0OzUFd9MaoD-21" target="YHJnWuM0y0OzUFd9MaoD-8" edge="1">
                    <mxGeometry relative="1" as="geometry"/>
                </mxCell>
                <mxCell id="YHJnWuM0y0OzUFd9MaoD-21" value="Prof" style="rounded=0;whiteSpace=wrap;html=1;" parent="1" vertex="1">
                    <mxGeometry x="230" y="590" width="120" height="60" as="geometry"/>
                </mxCell>
                <mxCell id="YHJnWuM0y0OzUFd9MaoD-24" value="" style="edgeStyle=orthogonalEdgeStyle;rounded=0;orthogonalLoop=1;jettySize=auto;html=1;endArrow=block;endFill=0;" parent="1" source="YHJnWuM0y0OzUFd9MaoD-23" target="YHJnWuM0y0OzUFd9MaoD-8" edge="1">
                    <mxGeometry relative="1" as="geometry"/>
                </mxCell>
                <mxCell id="YHJnWuM0y0OzUFd9MaoD-23" value="Officer" style="rounded=0;whiteSpace=wrap;html=1;" parent="1" vertex="1">
                    <mxGeometry x="420" y="590" width="120" height="60" as="geometry"/>
                </mxCell>
                <mxCell id="YHJnWuM0y0OzUFd9MaoD-27" value="&lt;font style=&quot;font-size: 14px;&quot;&gt;*&lt;/font&gt;" style="text;html=1;resizable=0;autosize=1;align=center;verticalAlign=middle;points=[];fillColor=none;strokeColor=none;rounded=0;" parent="1" vertex="1">
                    <mxGeometry x="370" y="450" width="30" height="30" as="geometry"/>
                </mxCell>
                <mxCell id="YHJnWuM0y0OzUFd9MaoD-28" value="&lt;font style=&quot;font-size: 14px;&quot;&gt;*&lt;/font&gt;" style="text;html=1;resizable=0;autosize=1;align=center;verticalAlign=middle;points=[];fillColor=none;strokeColor=none;rounded=0;" parent="1" vertex="1">
                    <mxGeometry x="388" y="251" width="30" height="30" as="geometry"/>
                </mxCell>
                <mxCell id="YHJnWuM0y0OzUFd9MaoD-29" value="&lt;font style=&quot;font-size: 14px;&quot;&gt;*&lt;/font&gt;" style="text;html=1;resizable=0;autosize=1;align=center;verticalAlign=middle;points=[];fillColor=none;strokeColor=none;rounded=0;" parent="1" vertex="1">
                    <mxGeometry x="930" y="300" width="30" height="30" as="geometry"/>
                </mxCell>
                <mxCell id="YHJnWuM0y0OzUFd9MaoD-30" value="&lt;font style=&quot;font-size: 14px;&quot;&gt;*&lt;/font&gt;" style="text;html=1;resizable=0;autosize=1;align=center;verticalAlign=middle;points=[];fillColor=none;strokeColor=none;rounded=0;" parent="1" vertex="1">
                    <mxGeometry x="240" y="340" width="30" height="30" as="geometry"/>
                </mxCell>
                <mxCell id="YHJnWuM0y0OzUFd9MaoD-31" value="&lt;font style=&quot;font-size: 14px;&quot;&gt;*&lt;/font&gt;" style="text;html=1;resizable=0;autosize=1;align=center;verticalAlign=middle;points=[];fillColor=none;strokeColor=none;rounded=0;" parent="1" vertex="1">
                    <mxGeometry x="500" y="340" width="30" height="30" as="geometry"/>
                </mxCell>
                <mxCell id="YHJnWuM0y0OzUFd9MaoD-32" value="&lt;font style=&quot;font-size: 14px;&quot;&gt;*&lt;/font&gt;" style="text;html=1;resizable=0;autosize=1;align=center;verticalAlign=middle;points=[];fillColor=none;strokeColor=none;rounded=0;" parent="1" vertex="1">
                    <mxGeometry x="300" y="480" width="30" height="30" as="geometry"/>
                </mxCell>
                <mxCell id="YHJnWuM0y0OzUFd9MaoD-33" value="&lt;font style=&quot;font-size: 14px;&quot;&gt;*&lt;/font&gt;" style="text;html=1;resizable=0;autosize=1;align=center;verticalAlign=middle;points=[];fillColor=none;strokeColor=none;rounded=0;" parent="1" vertex="1">
                    <mxGeometry x="184" y="450" width="30" height="30" as="geometry"/>
                </mxCell>
            </root>
        </mxGraphModel>
    </diagram>
</mxfile>